<?xml version="1.0" encoding="utf-8"?>
<!-- Generator: Adobe Illustrator 19.1.0, SVG Export Plug-In . SVG Version: 6.00 Build 0)  -->
<svg version="1.1" id="Layer_1" xmlns="http://www.w3.org/2000/svg" xmlns:xlink="http://www.w3.org/1999/xlink" x="0px" y="0px"
	 viewBox="0 0 170.5 169.1" style="enable-background:new 0 0 170.5 169.1;" xml:space="preserve">
<g>
	<g>
		<g>
			<path style="fill:#88866D;" d="M54.5,34.6l2.5-1.1L45.4,13.6c-0.4-0.7-1.2-0.9-1.9-0.5c-0.7,0.4-0.9,1.2-0.5,1.9L54.5,34.6z"/>
			<path style="fill:#88866D;" d="M70,27.8l2.6-1.1l-5.8-22c-0.2-0.7-0.9-1.2-1.7-1c-0.7,0.2-1.2,0.9-1,1.7L70,27.8z"/>
			<path style="fill:#88866D;" d="M12.7,44l8.7,5l3.1-1.4l-10.5-6.1c-0.7-0.4-1.5-0.2-1.9,0.5C11.8,42.8,12,43.7,12.7,44z"/>
			<path style="fill:#88866D;" d="M26.7,83.1L1.4,82.9c0,0,0,0,0,0c-0.8,0-1.4,0.6-1.4,1.4c0,0.8,0.6,1.4,1.4,1.4l25.7,0.1
				L26.7,83.1z"/>
			<path style="fill:#88866D;" d="M40.5,40.7l2.7-1.2L28.6,24.8c-0.5-0.5-1.4-0.5-2,0c-0.5,0.5-0.5,1.4,0,2L40.5,40.7z"/>
			<path style="fill:#88866D;" d="M85.3,21.1l1.3,0.5V1.4C86.6,0.6,86,0,85.2,0c-0.8,0-1.4,0.6-1.4,1.4v20.4L85.3,21.1z"/>
			<path style="fill:#88866D;" d="M4.7,63.5l19.7,5.6l-0.5-3L5.4,60.9c-0.7-0.2-1.5,0.2-1.7,1C3.5,62.6,4,63.3,4.7,63.5z"/>
			<path style="fill:#88866D;" d="M152,47.8l-0.2,1l6.9-3.8c0.7-0.4,0.9-1.2,0.5-1.9c-0.4-0.7-1.2-0.9-1.9-0.5l-7.7,4.3L152,47.8z"
				/>
			<path style="fill:#88866D;" d="M148.3,69.5l18.8-5c0.7-0.2,1.2-1,1-1.7c-0.2-0.7-1-1.2-1.7-1l-17.6,4.7L148.3,69.5z"/>
			<path style="fill:#88866D;" d="M133.3,40.4l12.8-12.6c0.5-0.5,0.5-1.4,0-2c-0.5-0.5-1.4-0.5-2,0l-13.7,13.5L133.3,40.4z"/>
			<path style="fill:#88866D;" d="M102.2,27.9l6-22.5c0.2-0.7-0.2-1.5-1-1.7c-0.7-0.2-1.5,0.2-1.7,1l-5.9,22.2L102.2,27.9z"/>
			<path style="fill:#88866D;" d="M116.8,33.7L127.5,15c0.4-0.7,0.1-1.5-0.5-1.9c-0.7-0.4-1.5-0.1-1.9,0.5l-10.9,19.1L116.8,33.7z"
				/>
			<path style="fill:#88866D;" d="M119,139.7l-2.4,1.4l8.4,14.5c0.3,0.4,0.7,0.7,1.2,0.7c0.2,0,0.5-0.1,0.7-0.2
				c0.7-0.4,0.9-1.2,0.5-1.9L119,139.7z"/>
			<path style="fill:#88866D;" d="M134.3,130.9l-2.5,1.4l11.5,11.5c0.3,0.3,0.6,0.4,1,0.4c0.4,0,0.7-0.1,1-0.4c0.5-0.5,0.5-1.4,0-2
				L134.3,130.9z"/>
			<path style="fill:#88866D;" d="M159.2,125.5l-18.6-10.8l-0.5,2.9l17.7,10.3c0.2,0.1,0.5,0.2,0.7,0.2c0.5,0,0.9-0.2,1.2-0.7
				C160.1,126.7,159.9,125.9,159.2,125.5z"/>
			<path style="fill:#88866D;" d="M104.4,148.1l-2.5,1.4l4.1,15.8c0.2,0.6,0.7,1,1.3,1c0.1,0,0.2,0,0.4,0c0.7-0.2,1.2-0.9,1-1.7
				L104.4,148.1z"/>
			<path style="fill:#88866D;" d="M169.1,83.9l-23.2-0.1l-0.5,2.8l23.7,0.1c0,0,0,0,0,0c0.8,0,1.4-0.6,1.4-1.4
				C170.5,84.5,169.9,83.9,169.1,83.9z"/>
			<path style="fill:#88866D;" d="M167.2,106.5l-24-6.8l-0.5,2.7l23.7,6.7c0.1,0,0.3,0.1,0.4,0.1c0.6,0,1.2-0.4,1.3-1
				C168.3,107.5,167.9,106.7,167.2,106.5z"/>
			<path style="fill:#88866D;" d="M84.8,159.3l-0.9-0.5v8.9c0,0.8,0.6,1.4,1.4,1.4c0.8,0,1.4-0.6,1.4-1.4v-9.4L84.8,159.3z"/>
			<path style="fill:#88866D;" d="M31.5,112.9l-19.2,10.7c-0.7,0.4-0.9,1.2-0.5,1.9c0.3,0.5,0.7,0.7,1.2,0.7c0.2,0,0.5-0.1,0.7-0.2
				l18.4-10.3L31.5,112.9z"/>
			<path style="fill:#88866D;" d="M37.3,131.4l-11.5,11.4c-0.5,0.5-0.5,1.4,0,2c0.3,0.3,0.6,0.4,1,0.4c0.4,0,0.7-0.1,1-0.4l12-11.9
				L37.3,131.4z"/>
			<path style="fill:#88866D;" d="M29.1,98.4l-23.5,6.3c-0.7,0.2-1.2,1-1,1.7c0.2,0.6,0.7,1,1.3,1c0.1,0,0.2,0,0.4,0l23.2-6.2
				L29.1,98.4z"/>
			<path style="fill:#88866D;" d="M52.9,140.6l-8.5,14.9c-0.4,0.7-0.1,1.5,0.5,1.9c0.2,0.1,0.5,0.2,0.7,0.2c0.5,0,0.9-0.3,1.2-0.7
				l8.5-14.9L52.9,140.6z"/>
			<path style="fill:#88866D;" d="M66.9,148.8l-4.2,15.8c-0.2,0.7,0.2,1.5,1,1.7c0.1,0,0.2,0,0.4,0c0.6,0,1.2-0.4,1.3-1l4-15
				L66.9,148.8z"/>
		</g>
		<path style="fill:#88866D;" d="M155.1,44.6L86,17c-0.5-0.2-1.1-0.2-1.6,0L18.1,46c-0.9,0.4-1.4,1.3-1.2,2.2l13.4,82.9
			c0.1,0.6,0.5,1.1,1,1.5l52.5,30.9c0.3,0.2,0.7,0.3,1.1,0.3c0.4,0,0.7-0.1,1-0.3l55.3-31.8c0.5-0.3,0.9-0.8,1-1.4l14.3-83.4
			C156.6,45.9,156,45,155.1,44.6z M140.1,129.9l-55.3,31.8l-52.5-30.9L18.9,47.9l66.4-29l69.1,27.6L140.1,129.9z"/>
		<path style="fill:#88866D;" d="M18.9,47.9l13.4,82.9l52.5,30.9l55.3-31.8l14.3-83.4L85.2,18.9L18.9,47.9z M152,47.8l-13.8,80.8
			l-53.4,30.7l-50.6-29.8L21.2,49.2l64.1-28L152,47.8z"/>
		<g>
			<polygon style="fill:#FFFFFF;" points="34,129.9 84.6,159.6 138,128.9 151.8,48.1 85.1,21.4 21,49.5 			"/>
		</g>
	</g>
	<g>
		<g>
			<path d="M85.4,98.9c-3.4,1.7-9.2,4.2-10.1-1.6C75,94.9,77,86,80.8,87c1.9,0.5-1.8,2.2-2.2,2.7c-1.6,1.7-2.5,4.6-2.1,7
				C77.5,103.3,84.6,97.1,85.4,98.9z"/>
			<path d="M90.4,101.8c-1.1,2-1.7-1.7-1.8-2.4c-0.2-1.9-0.1-3.8-0.9-5.6c-1.3,1.2-1.2,5.1-2.5,5.9c-1.8,1.2-1.2-8-1.2-9.1
				c0-1.3-0.7-5.4,0-6.4c0.7-1,0.8-0.1,1,0.5c1.3,3.3-1.6,8.6,0.1,11.7c0.8-1.7,1.8-6.8,3.7-3.3C90.3,95.7,88.9,99.3,90.4,101.8z"/>
			<path d="M98.1,100.5c-0.8,1.6-1.9,0.3-1.4-1.1c-2,0.6-9.2,2.8-6.9-2.1c0.7-1.5,2.6-3.1,4.2-3.6c1.6-0.6,2.5,0.5,2.4-1.2
				c0-0.7-0.9-2-1.5-2.2c-2-1-2.8,2.4-3.4,2.1c-1.7-0.8,1.1-3.3,2-3.5C98.8,87.7,97.9,97.7,98.1,100.5z M96.8,98.2
				c0-1.6,0.4-3.7-1.8-3.8c-1.2-0.1-3.4,1.8-3.9,2.8C89.4,100.8,95.8,100,96.8,98.2z"/>
			<path d="M100.8,84.6c-0.4,3.6-0.5,7.4-0.6,11c0,0.8,1,7.5-0.8,4.8c-1.4-2.1-0.1-7.7,0-10.1C99.6,88.8,98.8,83.1,100.8,84.6z"/>
			<path d="M103.8,84.6c-0.4,3.6-0.5,7.4-0.6,11c0,0.8,1,7.5-0.8,4.8c-1.4-2.1-0.1-7.7,0-10.1C102.5,88.8,101.7,83.1,103.8,84.6z"/>
			<path d="M112.7,100.9c-6.3,5.1-11.8-7.8-6-9.3c2.1-0.5,3.2,0.7,3.6,2.6c0.8,3.8-1.9,2.8-4.6,2.5c0,1.5,1.1,3.5,2.4,4.2
				C109.6,101.6,111.9,100.3,112.7,100.9z M109.3,95c0.1-2.5-3.3-3.3-3.7-0.7C105.3,95.9,108.8,96.2,109.3,95z"/>
			<path d="M119.2,99.8c-0.6,1.9-1.3-0.2-1.5-1c-0.4-1.6,0.2-3.4-0.5-4.9c-1,1.3-1.9,4.8-3.4,5.4c-2.3,1-1.2-2.3-1-3.7
				c0-0.5-0.3-4.3,1.1-3.3c1.1,0.9-0.2,3.6,0,4.7c0.9-0.9,2.5-5.9,4.3-4.9C119.6,93,118.6,98.2,119.2,99.8z"/>
			<path d="M132.7,109.1c-0.5,6.3-10.9,7.5-13.6,2.1c-1.3-2.7-0.5-5.3,2-7c0.5-0.3,3.6-1.2,3.7-1.5c0.2-0.6-1.7-3-2-3.3
				c-1.7-1.5-5-1.9-3.5-5.6c0.7-1.7,0.9-1.3,2.4-1.6c0.2,0,0.3,0.4,1,0.2c0.5-0.2,1.1-1.1,1.5-1.5c0.6-0.5,2-2.3,2.8-1.7
				c1.1,0.7-0.2,1.8-0.4,2c-0.3,0.3-1.8,0.2-1.7,1.5c0.1,1.7,2.8,2.3,1.2,4.6c-1.3,1.9-2.3,0.5-1.3,2.9c0.5,1.1,1.4,2.7,2.3,3.6
				c0.6,0.6-0.1,0.4,0.7,0.8c0.7,0.4,1.7,0.2,2.5,0.6C131.6,105.9,132.4,107.5,132.7,109.1z M131.5,108.6c-0.7-3.4-4.9-3.8-7.6-2.6
				c-0.3,0.1-2.3,2.1-1.9,0.5c0.3-1.2,2.1-2,3.2-2.1c-1.5-1.2-4.2,0.7-5,2.1c-1.1,1.9-0.5,4.3,0.9,5.8
				C123.8,115.1,132.3,113.2,131.5,108.6z M125.4,95.5c-0.8-2.3-4.3-3.5-5.2-1.3C118.5,98.3,125.2,98.8,125.4,95.5z"/>
			<path d="M135.9,100.9c-6.3,5.1-11.8-7.8-6-9.3c2.1-0.5,3.2,0.7,3.6,2.6c0.8,3.8-1.9,2.8-4.6,2.5c0,1.5,1.1,3.5,2.4,4.2
				C132.8,101.6,135.2,100.3,135.9,100.9z M132.5,95c0.1-2.5-3.3-3.3-3.7-0.7C128.6,95.9,132,96.2,132.5,95z"/>
		</g>
	</g>
	<g>
		<g>
			<path d="M63.5,131c-1.2,1.1-8.6,0.9-10.4,0.4c-3.6-0.9-1.6-4.4-0.3-6.5c1.5-2.4,9.7-11.9,7.2-14.7c-2.4-2.7-6.3,3.8-8.1,2.5
				c-2.9-2.1,4.4-5.3,5.7-5.5c4-0.7,5.7,2.2,4.7,5.8c-0.9,3-3.2,6.1-5,8.8c-1,1.4-2.4,3-3,4.7c-0.8,2.2,0,2.1,2.2,2.2
				c1.6,0,4.1-0.9,5.7-0.6C63.9,128.3,63.5,128.6,63.5,131z"/>
			<path d="M88.6,119.6c-1.5,7.7-14.4,10.1-20.5,7.6c-3.6-1.5-5.2-5-4.9-9c0.1-1.7,0.8-2.8,1.4-4.3c0.6-1.5,2.3-3.4-0.5-2.4
				c0.3-4.6,10.8-3.9,13.6-3.1C83.8,109.9,87.2,113.5,88.6,119.6z M86.1,118.9c-1.7-4.6-5.3-7.7-10.2-8.7c-2.4-0.5-4.3-0.8-6.2,0.6
				c-2.1,1.6-3.3,3.9-3.7,6.5c-0.9,5.6,2.8,8.7,8.3,8.5C78.3,125.6,85.5,123.4,86.1,118.9z"/>
			<path d="M94.3,126.9c-0.5,2.7-2.5,1.8-3-0.2c-0.5-2.2-0.7-3.8-0.7-6c-0.1-4.4-0.8-8.9-0.7-13.3c0.1-3.1,1.1-1.7,1.5,0.5
				c0.4,2.2,0.5,4.5,0.6,6.7C92.1,118,91.5,124.5,94.3,126.9z"/>
			<path d="M109.7,126.2c-0.3,3.7-3.7,4.8-6.8,4.8c-4.3,0-6.3-1.9-8.2-5.6c-0.7,0.6-0.9,0.4-1.7,0.3c0.2-1.1,1-1.8,1.3-2.7
				c0.3-0.9,0.3-2,0.4-3c0.2-2,1-3.8,1.7-5.7c1.4-3.4,3.8-7.5,7.1-9.6c1.6-1,3.8-0.5,2.1,1.7c-1.2,1.6-3.6,2.8-5,4.5
				c-1,1.3-4.9,8.6-3.2,9.8c0.5,0.3,3.1-0.4,3.9-0.4c1.5,0,2.3,0.3,3.6,0.8C107.3,122.3,109.1,123.7,109.7,126.2z M107,127.2
				c0.2-3.4-8.6-6.7-9.7-3.1c-0.5,1.5,2.2,3.9,3.4,4.2C102.6,129,105.4,128.5,107,127.2z"/>
		</g>
	</g>
	<g>
		<path style="fill:#CC423A;" d="M67.8,84.3c-2.1,1.9-6.3,0.8-8.9,0.7c-4.4,0-8.8,0.3-13.2,0.3c-2.2,0-9.2,0.5-10.1-2
			c-0.3-1,0.4-2.6,0.3-3.7c-0.2-1.7-0.1-1.4-1.9-1.1c-1.1,0.2-2.9,0.5-3-1.1c-0.1-2.1,2.7-1,3.7-1.5c1.6-0.7,1-2.3,1-4.1
			c-0.1-2.1-0.1-4.4-0.5-6.5c-0.2-1.4-1.3-2.5-0.1-3.6c0.4-0.4,2.4-1.3,2.9-1.3c0.6-0.1,1.5,0.3,2.1,0.4c0.9,0.1,1.9-0.1,2.8-0.2
			c0.3,0,4.7-0.3,4.7,0c0.2,1.2-7.9,2.1-8.9,2.4c-1.7,0.5-1.6,1.1-1.4,2.9c0.2,2,0.4,4.1,0.4,6.2c0,0.6-0.4,2.7,0.1,3.2
			c0.5,0.6,2.7,0.3,3.4,0.2c0.9,0,4.9-0.7,5.5,0.4c0.8,1.5-2.3,1.3-3.2,1.3c-2.5,0.2-6.4-0.3-5.5,3.1c0.9,3.3,5.3,3.2,8.1,3.1
			C48.4,83.3,68.1,82.5,67.8,84.3C66.1,85.9,68,83.1,67.8,84.3z"/>
		<path style="fill:#CC423A;" d="M67.2,81c0,1-0.4,2.7-1.8,1.8c-1.3-0.8-0.7-4.3-0.7-5.5c0-0.7,0.5-5.6,0-6.1
			c-0.9-0.8-2,1.4-2.7,2.3c-0.8,1.1-1.8,4-3,4.6c-1.9,1-1.9-0.8-1.8-2.2c0.2-1.9,0.7-3.9,0.5-5.9c-0.2-2.2-0.7-2.5-2.2-1
			c-1.2,1.2-2.7,2.8-3.2,4.5c-0.4,1.5,0.1,3,0.4,4.4c0.2,1.2,0.2,3.3-1.4,1.9c-1.1-1-0.7-3.4-0.9-4.7c-0.1-0.6-0.6-1.5-0.6-2.1
			c0-0.8,0.4-1.6,0.5-2.4c0.2-1.8-0.3-3.6-0.3-5.4c0-0.9,0.8-2.8,2.1-1.8c1.1,0.9-0.5,4.3,0.3,5.4c0.1,0.1,5-7,7-2.4
			c0.5,1.2,0.3,2.5,0.3,3.8c-0.1,1.8,0,2.4,1.4,0.9c1.3-1.5,4.4-7,5.7-2.4C67.8,72.6,64.9,77.8,67.2,81C67.2,81.9,66.5,80.1,67.2,81
			z"/>
		<path style="fill:#CC423A;" d="M80.3,73.5c-0.8,1.3-0.8,2.9-1.7,4.1c-0.9,1.2-2.3,2.4-3.4,3.3c-0.8,0.6-2.3,1.1-2.9,2
			c-0.6,1-0.1,2.8,0,4c0.1,1,2,6.6,0.2,6.4c-1.9-0.3-1.9-7.1-2-8.4c-0.2-3.2-0.5-6.3-0.8-9.5c-0.1-1.7-0.1-3.3-0.4-4.9
			c-0.2-0.9-0.1-1.4-0.2-2.2c0-0.4-0.3-1-0.4-1.4c-0.2-3.1,3.9-1.9,5.9-1.1C77.5,67.1,80.3,70.2,80.3,73.5
			C79.7,74.5,80.3,70.9,80.3,73.5z M78.1,74.2c0-4.1-2.8-7.3-7.1-6.6c1.6,1,0.8,4,0.8,5.6c0,2-0.1,4.3,0.3,6.2c0.4,1.9,1,1.2,2.3,0
			C75.9,77.9,77.3,76.3,78.1,74.2C78.1,73.2,77.7,75.1,78.1,74.2z"/>
		<path style="fill:#CC423A;" d="M95.8,71.1c-0.6,4.3-3.1,7.8-7,9.7c-4.3,2-7.5-0.5-7.6-5c-0.2-4.3,1.1-8.1,5.5-9.6
			C90.6,64.9,94.8,67,95.8,71.1C95.2,75.5,94.6,66.2,95.8,71.1z M93.6,71.6c-0.9-3.4-4.3-4.7-7.3-3.2c-2.3,1.1-3,5.1-2.9,7.6
			C83.6,83.6,93.9,76.6,93.6,71.6C92.8,68.6,93.8,75.1,93.6,71.6z"/>
		<path style="fill:#CC423A;" d="M112.9,75.2c-0.3,1.8-1.2,9.9-4.3,7.4c-1.2-1-2-2.7-2.7-4.1c-0.7-1.4-1-3.7-2.1-4.8
			c-1.4,1.5-2,5.7-3.9,6.4c-2.2,0.9-2.7-3.7-3.1-5.1c-0.4-1.5-0.6-3-0.9-4.5c-0.1-0.7-1.4-2.7-1.1-3.3c0.3-0.8,1.6-1,2.3-0.6
			c1,0.6,0.9,2.3,0.9,3.3c0.1,1.3,0,6.7,1.7,6.4c0.7-0.1,1.9-3.3,2.2-3.9c0.4-0.9,0.2-2.4,1.2-2.8c2.2-1,3,2.5,3.3,3.9
			c0.5,2.4,0.9,5.2,2.9,6.9c1-1.7,1.4-3.6,1.7-5.6c0.2-1.8-0.1-4.1,0.3-5.8c0.4-1.7,1.2-1.3,1.6,0.1
			C113.4,70.9,112.7,73.4,112.9,75.2C112.6,76.8,112.6,73.3,112.9,75.2z"/>
		<path style="fill:#CC423A;" d="M128.1,81.4c-4.1,2.9-8.9,2.7-12.1-1.6c-2.2-3.1-4.2-9.6-1.6-12.8c2.8-3.5,8.3-2.7,9.3,1.8
			c0.3,1.3,0.9,5-0.6,5.8c-1.6,0.8-5.6-0.4-7.3-0.6c0,3.4,2.8,7.6,6.4,8C122.8,82.1,128.2,80.9,128.1,81.4
			C126.8,82.3,128.4,80.3,128.1,81.4z M122.1,71c-0.2-1.4-0.5-3.2-1.9-3.9c-1.5-0.7-3.3,0.3-4.1,1.7c-0.3,0.5-1,2.3-0.6,2.8
			c0.2,0.2,2.2,0.3,2.6,0.3C119.7,72.1,121.4,72.8,122.1,71C121.8,68.9,121.9,71.6,122.1,71z"/>
		<path style="fill:#CC423A;" d="M137.8,69c-0.4,1-1.3,0.8-2.1,1.3c-0.9,0.5-0.9,0.9-1.5,1.7c-1.2,1.7-1.8,3.8-2.5,5.8
			c-0.6,1.6-0.6,4.2-2.5,4.7c-2.4,0.7-1.6-3.1-1.6-4.6c0.1-2.4,0.5-4.5,0-6.8c-0.2-1-0.5-3.3,1.3-2.2c2.1,1.4-0.2,5.7,1.1,7.5
			c1.1-2.1,1.5-4.7,2.9-6.6C133.8,68.7,137.8,66.4,137.8,69C137.3,70.5,137.8,68.5,137.8,69z"/>
	</g>
	<polygon style="fill:#F0B41C;" points="64.2,39.1 68.4,58.2 106.7,58.8 109.1,37.8 93.3,46.3 85.4,32.4 79.3,46.9 	"/>
</g>
</svg>
